<svg width="100%" height="100%" viewBox="0 0 342 237" fill="none" xmlns="http://www.w3.org/2000/svg">
<path fill-rule="evenodd" clip-rule="evenodd" d="M157.807 0V18.6142H164.41V91.0501H173.082V68.7429H177.65V63.3547L187.641 68.7429H190.089V55.3423L202.043 35.9197L213.997 55.3423V100.913H219.608V109.769H227.888V73.6263H234.75L234.465 58.63H242.406V54.3349H250.452L251.69 28.3619L252.927 54.3349H254.475V58.63H256.563L255.798 98.7916H257.28V81.0731L273.916 68.7429V91.0501H290.553V73.6263H300.822V63.3547L318.414 78.9431V63.3547L342 84.2553V237H324.409H318.414H301.572H300.822H290.553H273.916H257.28H253.832H238.908H237.196H228.851H227.888H213.997H204.942H190.089H173.082H164.41H149.711H143.427H128.688H124.692H111.157H103.788H91.8833H87.5705H81.431H70.9793H68.2959H57.8442H52.204H47.3919H28.6184H20.8402H10.7236H0.605774H-7.18307H-9.5108H-20.8106H-23.8192H-34V88.1382H-25.9884L-26.55 58.63H-9.5108V15.9155H0.605774V24.9953H10.7236V33.3083H20.8402V76.167H28.6184V56.2403H31.388V54.0427H49.4338V56.2403H52.204V97.7911H57.8442V44.3898H60.615V42.1922H78.6602V44.3898H81.431V75.1407H87.5705V56.2403H90.3407V54.0427H108.386V56.2403H111.157V63.3547L116.948 71.1819V84.3047H124.692V76.167H128.688V56.2403H143.427V44.443L149.711 37.7142V18.6142H156.314V0H157.807Z" fill="white" fill-opacity="0.2"/>
<path fill-rule="evenodd" clip-rule="evenodd" d="M219.06 102V112.603H214.828V153.864H209.269V141.157H206.341V138.088L199.938 141.157H198.369V133.524L190.707 122.461L183.045 133.524V159.482H179.448V164.527H174.141V143.939H169.742L169.926 135.397H164.836V132.95H159.679L158.885 118.156L158.092 132.95H157.1V135.397H155.761L156.252 158.274H155.302V148.181L144.639 141.157V153.864H133.975V143.939H127.393V138.088L116.118 146.968V138.088L101 149.994V237H112.275H116.118H126.913H127.393H133.975H144.639H155.302H157.512H167.078H168.175H173.524H174.141H183.045H188.848H198.369H209.269H214.828H224.249H228.277H237.724H240.285H248.96H253.684H261.314H264.078H268.014H274.713H276.433H283.132H286.747H289.831H301.864H306.85H313.334H319.819H324.811H326.303H333.546H335.475H342V152.205H336.865L337.225 135.397H326.303V111.066H319.819V116.238H313.334V120.973H306.85V145.386H301.864V134.036H300.089V132.784H288.522V134.036H286.747V157.704H283.132V127.285H281.356V126.034H269.79V127.285H268.014V144.802H264.078V134.036H262.303V132.784H250.737V134.036H248.96V138.088L245.249 142.547V150.022H240.285V145.386H237.724V134.036H228.277V127.316L224.249 123.483V112.603H220.017V102H219.06Z" fill="white" fill-opacity="0.2"/>
<path fill-rule="evenodd" clip-rule="evenodd" d="M5.60645 102V112.603H2.32275V153.864H-1.99044V141.157H-4.26202V138.088L-9.23103 141.157H-10.4483V133.524L-16.3937 122.461L-22.3388 133.524V159.482H-25.1296V164.527H-29.2476V143.939H-32.6604L-32.5183 135.397H-36.4677V132.95H-40.4693L-41.0851 118.156L-41.7005 132.95H-42.4702V135.397H-43.5087L-43.1282 158.274H-43.8653V148.181L-52.1391 141.157V153.864H-60.4132V143.939H-65.5207V138.088L-74.2696 146.968V138.088L-86 149.994V237H101V152.205H97.0155L97.2948 135.397H88.8205V111.066H83.7891V116.238H78.7571V120.973H73.7258V145.386H69.8573V134.036H68.4799V132.784H59.505V134.036H58.1273V157.704H55.3222V127.285H53.9441V126.034H44.9695V127.285H43.5915V144.802H40.5381V134.036H39.1604V132.784H30.1858V134.036H28.8074V138.088L25.9275 142.547V150.022H22.0761V145.386H20.0885V134.036H12.7583V127.316L9.63316 123.483V112.603H6.34915V102H5.60645Z" fill="white" fill-opacity="0.2"/>
</svg>
