<svg width="65" height="65" viewBox="0 0 65 65" fill="none" xmlns="http://www.w3.org/2000/svg">
<path d="M65 32.5C65 50.4493 50.4493 65 32.5 65C14.5507 65 0 50.4493 0 32.5C0 14.5507 14.5507 0 32.5 0C50.4493 0 65 14.5507 65 32.5Z" fill="#4CE5B1" fill-opacity="0.94902"/>
<path d="M57.9427 32.519L57.1059 39.8408C56.9513 40.6048 56.2692 41.2143 55.5051 41.2143H54.0589C53.3768 38.0126 50.4752 35.575 47.0463 35.575C43.6173 35.575 40.7159 37.9399 40.0338 41.2143H27.7548C27.0727 38.0126 24.1711 35.575 20.7423 35.575C17.3134 35.575 14.4118 38.0126 13.7297 41.2143H11.4283C10.6643 41.2143 9.98211 40.6049 9.90022 39.8408L9.06351 32.519C8.99077 31.755 9.60012 30.9909 10.437 30.9909C12.6472 30.9909 14.4754 29.3901 14.8574 27.2526L16.4582 17.2749C16.5309 16.5928 17.1403 16.1289 17.8317 16.1289H41.0161C41.5527 16.1289 42.0075 16.4382 42.235 16.811L49.0202 28.708C49.7841 30.0814 51.3122 30.9909 52.9131 30.9909H56.5695C57.4061 31.0728 58.0246 31.6094 57.9427 32.519Z" fill="#FFC10D"/>
<path d="M20.7336 38.622C18.4415 38.622 16.6133 40.4502 16.6133 42.7423C16.6133 45.0344 18.4415 46.8626 20.7336 46.8626C23.0256 46.8626 24.8538 45.0344 24.8538 42.7423C24.9266 40.4502 23.0165 38.622 20.7336 38.622Z" fill="#56ACE0"/>
<path d="M47.0378 38.622C44.7457 38.622 42.9175 40.4502 42.9175 42.7423C42.9175 45.0344 44.7457 46.8626 47.0378 46.8626C49.3298 46.8626 51.158 45.0344 51.158 42.7423C51.158 40.4502 49.3298 38.622 47.0378 38.622Z" fill="#56ACE0"/>
<path d="M56.4967 27.8711H52.8403C52.3037 27.8711 51.8489 27.5619 51.6214 27.189L44.8364 15.2921C44.0724 13.9186 42.5443 13 40.9435 13H17.759C15.5488 13 13.7206 14.6008 13.3386 16.7383L11.8105 26.7252C11.7378 27.4073 11.1284 27.8711 10.4371 27.8711C7.91763 27.8711 5.78932 29.854 6.01669 32.8281L6.8534 40.15C7.08077 42.442 9.0636 44.1883 11.4284 44.1883H13.7932C14.4753 47.39 17.3769 49.8276 20.8058 49.8276C24.2347 49.8276 27.1363 47.39 27.8184 44.1883H40.0973C40.7794 47.39 43.681 49.8276 47.1099 49.8276C50.5388 49.8276 53.4404 47.39 54.1224 44.1883H55.5687C57.9335 44.1883 59.8344 42.4329 60.1437 40.15L60.9804 32.8281C61.2265 30.1541 59.089 27.9439 56.4967 27.8711ZM55.5053 41.2143H54.0591C53.377 38.0126 50.4755 35.5751 47.0466 35.5751C43.6175 35.5751 40.7161 37.9399 40.034 41.2143H27.755C27.073 38.0126 24.1714 35.5751 20.7425 35.5751C17.3136 35.5751 14.412 38.0126 13.7299 41.2143H11.4286C10.6646 41.2143 9.98234 40.605 9.90046 39.8408L9.06374 32.519C8.991 31.755 9.60035 30.9909 10.4372 30.9909C12.6474 30.9909 14.4756 29.3901 14.8576 27.2526L16.4584 17.2749C16.5312 16.5928 17.1405 16.1289 17.8319 16.1289H41.0163C41.553 16.1289 42.0077 16.4382 42.2352 16.811L49.0204 28.708C49.7844 30.0815 51.3125 31.0001 52.9133 31.0001H56.5697C57.4064 31.0728 58.0159 31.6094 57.9432 32.5282L57.1065 39.85C56.9516 40.6048 56.2693 41.2143 55.5053 41.2143ZM47.0374 46.8534C44.7453 46.8534 42.9171 45.0252 42.9171 42.7331C42.9171 40.441 44.7453 38.6128 47.0374 38.6128C49.3295 38.6128 51.1577 40.441 51.1577 42.7331C51.1577 45.0252 49.3295 46.8534 47.0374 46.8534ZM20.7333 46.8534C18.4413 46.8534 16.6131 45.0252 16.6131 42.7331C16.6131 40.441 18.4413 38.6128 20.7333 38.6128C23.0254 38.6128 24.8536 40.441 24.8536 42.7331C24.9264 45.0252 23.0163 46.8534 20.7333 46.8534Z" fill="#194F82"/>
<path d="M28.2097 22.1501H21.7973L21.1152 26.3432H28.2097V22.1501Z" fill="white"/>
<path d="M31.2568 22.1501V26.3432H40.5615L38.1967 22.1501H31.2568Z" fill="white"/>
<path d="M44.5273 27.1071L40.4071 19.8671C40.0978 19.4123 39.6431 19.1031 39.1065 19.1031H20.506C19.7421 19.1031 19.1326 19.6397 18.9779 20.4037L17.832 27.6438C17.7592 28.6351 18.4413 29.3992 19.3601 29.3992H43.1539C44.3727 29.3992 45.0548 28.0985 44.5273 27.1071ZM21.7976 22.1501H28.2008V26.3432H21.1064L21.7976 22.1501ZM31.257 26.3432V22.1501H38.1969L40.5617 26.3432H31.257Z" fill="#194F82"/>
<path d="M41.8534 31.9095H40.9348C40.0981 31.9095 39.4067 32.5916 39.4067 33.4376C39.4067 34.2743 40.0888 34.9657 40.9348 34.9657H41.8534C42.6902 34.9657 43.3815 34.2836 43.3815 33.4376C43.3814 32.6007 42.6902 31.9095 41.8534 31.9095Z" fill="#194F82"/>
<path d="M36.4416 33.4376C36.4416 32.6009 35.7595 31.9095 34.9135 31.9095H33.9949C33.1582 31.9095 32.4668 32.5916 32.4668 33.4376C32.4668 34.2743 33.1489 34.9657 33.9949 34.9657H34.9135C35.7595 34.9655 36.4416 34.2743 36.4416 33.4376Z" fill="#194F82"/>
<path d="M29.5017 33.4376C29.5017 32.6009 28.8196 31.9095 27.9736 31.9095H27.055C26.2182 31.9095 25.5269 32.5916 25.5269 33.4376C25.5269 34.2743 26.2089 34.9657 27.055 34.9657H27.9736C28.8194 34.9655 29.5017 34.2743 29.5017 33.4376Z" fill="#194F82"/>
<path d="M38.4242 36.2571H37.5056C36.6689 36.2571 35.9775 36.9392 35.9775 37.7852C35.9775 38.622 36.6596 39.3133 37.5056 39.3133H38.4242C39.261 39.3133 39.9523 38.6312 39.9523 37.7852C39.9523 36.9484 39.261 36.2571 38.4242 36.2571Z" fill="#194F82"/>
<path d="M31.4115 36.2571H30.4929C29.6562 36.2571 28.9648 36.9392 28.9648 37.7852C28.9648 38.622 29.6469 39.3133 30.4929 39.3133H31.4115C32.2483 39.3133 32.9396 38.6312 32.9396 37.7852C32.9305 36.9484 32.2483 36.2571 31.4115 36.2571Z" fill="#194F82"/>
</svg>

