<svg width="65" height="65" viewBox="0 0 65 65" fill="none" xmlns="http://www.w3.org/2000/svg">
<path d="M65 32.5C65 50.4493 50.4493 65 32.5 65C14.5507 65 0 50.4493 0 32.5C0 14.5507 14.5507 0 32.5 0C50.4493 0 65 14.5507 65 32.5Z" fill="#4CE5B1" fill-opacity="0.94902"/>
<path d="M56.3792 40.6691L54.5819 45.3901H11.395L9.67822 40.6691H56.3792Z" fill="#FFC10D"/>
<path d="M15.821 33.4712H12.7452C12.3697 34.8214 12.0746 36.2429 11.9941 37.7451H53.9739C53.3032 28.2226 46.2485 20.2826 36.735 18.557C35.8319 18.405 35.3133 17.4304 35.6084 16.6077C35.6799 16.3037 35.7604 16.0087 35.7604 15.7852C35.7604 14.283 34.5622 13.0134 32.9887 13.0134C31.4865 13.0134 30.2169 14.2116 30.2169 15.7852C30.2169 16.0892 30.2884 16.3842 30.3689 16.6077C30.6729 17.4303 29.9934 18.4855 29.2423 18.557C24.5928 19.3795 20.5514 21.7759 17.547 25.0037H20.0952C20.9178 25.0037 21.5974 25.6742 21.5974 26.5059C21.5974 27.3285 20.9269 28.0081 20.0952 28.0081H15.2219C14.6944 28.8307 14.2474 29.6533 13.8717 30.4849H15.8925C16.715 30.4849 17.3947 31.1554 17.3947 31.9871C17.3947 32.7916 16.6436 33.4712 15.821 33.4712Z" fill="white"/>
<path d="M36.207 21.4719C34.0342 21.0964 31.8615 21.0964 29.7603 21.4719C22.7145 22.7504 17.2423 27.9901 15.5166 34.7409H50.4506C48.7339 27.9991 43.2617 22.7504 36.207 21.4719Z" fill="#56ACE0"/>
<path d="M58.4713 37.7451H56.9691C56.2985 27.2479 48.9486 18.4049 38.7554 15.9282C38.7554 15.8567 38.7554 15.8567 38.7554 15.7762C38.7554 12.6288 36.2072 10 32.9793 10C29.8318 10 27.2031 12.5483 27.2031 15.7762C27.2031 15.8477 27.2031 15.8477 27.2031 15.9282C17.01 18.4049 9.66026 27.2479 8.98959 37.7451H7.50536C6.37881 37.8166 5.77964 38.7197 6.0748 39.7659L8.92707 47.4913C9.15058 48.0903 9.6781 48.4658 10.3488 48.4658H55.628C56.227 48.4658 56.8262 48.0903 57.0497 47.4913L59.902 39.7659C60.2774 38.7198 59.5263 37.7451 58.4713 37.7451ZM12.745 33.4711H15.8208C16.6434 33.4711 17.323 32.8006 17.323 31.9689C17.323 31.1464 16.6525 30.4667 15.8208 30.4667H13.8716C14.2471 29.6442 14.6941 28.741 15.2218 27.99H20.0948C20.9173 27.99 21.597 27.3194 21.597 26.4878C21.597 25.6652 20.9265 24.9856 20.0948 24.9856H17.5465C20.542 21.6861 24.5923 19.3614 29.2419 18.5388C30.0645 18.4673 30.7441 17.4926 30.3685 16.5896C30.297 16.2856 30.2165 15.9906 30.2165 15.7671C30.2165 14.2649 31.4147 12.9953 32.9882 12.9953C34.4905 12.9953 35.76 14.1935 35.76 15.7671C35.76 16.0711 35.6885 16.3661 35.608 16.5896C35.304 17.4121 35.8315 18.3868 36.7346 18.5388C46.2571 20.2646 53.303 28.2045 53.9735 37.727H12.0029C12.0744 36.2431 12.3784 34.8213 12.745 33.4711ZM54.5728 45.39H11.4038L9.6781 40.669H56.3789L54.5728 45.39Z" fill="#194F82"/>
</svg>
