<svg width="120" height="136" fill="none" xmlns="http://www.w3.org/2000/svg"><g filter="url(#prefix__filter0_f_0_1)"><path fill-rule="evenodd" clip-rule="evenodd" d="M60 127c28.166 0 51-2.686 51-6s-22.834-6-51-6-51 2.686-51 6 22.834 6 51 6z" fill="#000" fill-opacity=".2"/></g><rect width="120" height="120" rx="34" fill="#fff"/><mask id="prefix__a" style="mask-type:luminance" maskUnits="userSpaceOnUse" x="0" y="0" width="120" height="120"><rect width="120" height="120" rx="34" fill="#fff"/></mask><g mask="url(#prefix__a)" fill="#4CE5B1"><path fill-rule="evenodd" clip-rule="evenodd" d="M58.23-12V.645h-5.672v49.208h-7.45V34.699h-3.924v-3.66l-8.583 3.66h-2.103v-9.104L20.23 12.401 9.96 25.595v30.958H5.14v6.016h-7.113V38.016h-5.895l.246-10.187h-6.822V24.91h-6.912L-22.42 7.267l-1.063 17.644h-1.33v2.918h-1.793l.657 27.283h-1.273V43.075l-14.291-8.376v15.154h-14.292V38.016h-8.822v-6.978l-15.112 10.59v-10.59L-100 45.237V149H223V47.874h-6.882l.482-20.045h-14.637V-1.188h-8.691V4.98h-8.691v5.647h-8.691v29.115h-6.682V26.205h-2.379v-1.492h-15.502v1.492h-2.38v28.227h-4.845V18.155h-2.38v-1.493H126.22v1.493h-2.38v20.89h-5.274v-12.84h-2.38v-1.492h-15.502v1.492h-2.38v4.833l-4.975 5.318v8.914h-6.652v-5.528h-3.433V26.205H70.582v-8.014l-5.397-4.57V.644h-5.673V-12H58.23z" fill-opacity=".1"/><path fill-rule="evenodd" clip-rule="evenodd" d="M127.039 47v9.503h-4.267v36.983h-5.604v-11.39h-2.952v-2.75l-6.457 2.75h-1.582v-6.841l-7.726-9.916-7.725 9.916V98.52h-3.627v4.521h-5.351V84.59h-4.435l.185-7.657h-5.133v-2.192h-5.2l-.8-13.26-.8 13.26h-1v2.192h-1.35l.495 20.505h-.958v-9.046l-10.751-6.295v11.389H41.249V84.59h-6.637v-5.244l-11.369 7.958v-7.958L8 90.016V168H251V91.999h-5.178l.363-15.066h-11.012V55.126h-6.538v4.635h-6.539v4.244h-6.538v21.882h-5.027V75.713h-1.79v-1.122h-11.662v1.122h-1.791v21.214h-3.645V69.663h-1.79v-1.122H178.19v1.122h-1.79v15.7h-3.968v-9.65h-1.79v-1.122h-11.663v1.122h-1.791v3.633l-3.742 3.996v6.7h-5.005v-4.155h-2.583V75.713h-9.525V69.69l-4.061-3.435v-9.752h-4.267V47h-.966z" fill-opacity=".2"/><path fill-rule="evenodd" clip-rule="evenodd" d="M-33.627 75v7.226h3.249v28.118h4.267v-8.659h2.247v-2.092l4.916 2.092h1.204v-5.202l5.882-7.54 5.882 7.54v17.69h2.76v3.438H.856v-14.03H4.23l-.14-5.822h3.906v-1.667h3.96l.608-10.082.61 10.082h.76v1.667h1.028l-.376 15.59h.729v-6.878l8.185-4.786v8.659h8.186v-6.763h5.053v-3.988l8.655 6.052v-6.052L57 107.707V167H-128v-57.786h3.942l-.276-11.455h8.383V81.18h4.978v3.524h4.978v3.227h4.978v16.637h3.827v-7.735h1.362v-.853h8.88v.853h1.362v16.129h2.775v-20.73h1.364v-.853h8.878v.853h1.364v11.938h3.02v-7.337h1.363v-.853h8.879v.853h1.363v2.761l2.85 3.039v5.094h3.81v-3.159h1.966v-7.735h7.252v-4.58l3.092-2.612v-7.414h3.248V75h.735z" fill-opacity=".2"/><path d="M83.799 84.275l-2.447-2.503-.006.006 2.453 2.497zm-47.583 0l2.456-2.493a.815.815 0 00-.013-.013l-2.443 2.506zm-9.967-28.328l3.474.422.001-.008-3.475-.414zm67.5.02l-3.476.408.002.014 3.474-.423zm0 .072l1.615 3.105a3.5 3.5 0 001.86-3.516l-3.475.41zm-67.5 0l-3.48-.371a3.5 3.5 0 001.86 3.474l1.62-3.103zm57.55 28.236l2.448 2.501a3.5 3.5 0 001.014-3.015l-3.462.514zm-47.583 0l-3.463-.509a3.5 3.5 0 001.011 3.007l2.452-2.498zM90.5 60.01c0 8.525-3.497 16.24-9.147 21.762l4.893 5.006A37.338 37.338 0 0097.5 60.01h-7zm-9.154 21.768C75.836 87.191 68.316 90.51 60 90.51v7c10.223 0 19.487-4.09 26.253-10.739l-4.906-4.993zM60 90.51c-8.301 0-15.837-3.32-21.327-8.728l-4.912 4.986A37.288 37.288 0 0059.999 97.51v-7zm-21.34-8.741A30.282 30.282 0 0129.5 60.01h-7a37.282 37.282 0 0011.273 26.771l4.886-5.012zM29.5 60.01c0-1.23.078-2.448.223-3.641l-6.949-.844a37.22 37.22 0 00-.274 4.485h7zm.224-3.65C31.524 41.245 44.4 29.51 60 29.51v-7c-19.19 0-35.013 14.43-37.226 33.023l6.951.828zM60 29.51c15.62 0 28.493 11.734 30.274 26.865l6.952-.818C95.033 36.939 79.207 22.51 59.999 22.51v7zm30.276 26.879a29.9 29.9 0 01.225 3.621h7c0-1.533-.1-3.016-.277-4.466l-6.948.845zm1.86-3.456c-8.924 4.64-19.27 7.43-31.483 7.43v7c13.337 0 24.79-3.06 34.712-8.219l-3.23-6.21zm-31.483 7.43c-12.283 0-23.92-2.802-32.784-7.427l-3.238 6.206c9.98 5.208 22.751 8.22 36.022 8.22v-7zM29.73 56.41c1.65-15.488 15.45-27.281 30.837-26.901l.173-6.998c-18.954-.468-35.926 13.97-37.97 33.157l6.96.742zm30.837-26.901c15.439.382 27.912 11.753 29.707 26.94l6.952-.821c-2.206-18.665-17.586-32.65-36.486-33.117l-.173 6.998zM81.35 81.774c-5.558 5.44-12.977 8.736-21.352 8.736v7c10.293 0 19.446-4.076 26.248-10.734l-4.896-5.002zM59.999 90.51c-8.36 0-15.793-3.297-21.331-8.733l-4.904 4.996C40.552 93.435 49.724 97.51 60 97.51v-7zm-20.32-5.727c1.443-9.825 10.436-17.42 20.973-17.42v-7c-13.79 0-25.92 9.929-27.899 23.403l6.926 1.017zm20.973-17.42c10.297 0 18.19 7.36 19.685 17.426l6.924-1.028c-1.965-13.234-12.583-23.398-26.609-23.398v7z"/></g><defs><filter id="prefix__filter0_f_0_1" x=".845" y="106.845" width="118.31" height="28.31" filterUnits="userSpaceOnUse" color-interpolation-filters="sRGB"><feFlood flood-opacity="0" result="BackgroundImageFix"/><feBlend in="SourceGraphic" in2="BackgroundImageFix" result="shape"/><feGaussianBlur stdDeviation="4.077" result="effect1_foregroundBlur_0_1"/></filter></defs></svg>