<svg width="65" height="65" viewBox="0 0 65 65" fill="none" xmlns="http://www.w3.org/2000/svg">
<path d="M65 32.5C65 50.4493 50.4493 65 32.5 65C14.5507 65 0 50.4493 0 32.5C0 14.5507 14.5507 0 32.5 0C50.4493 0 65 14.5507 65 32.5Z" fill="#4CE5B1" fill-opacity="0.94902"/>
<path d="M50.0146 27.3368C45.9888 27.4775 35.2946 29.075 34.6651 42.9467H31.4013C31.1196 34.7611 26.398 27.1961 14.2458 27.403L12.9287 24.8373H28.0712C28.4191 24.8373 28.767 24.6966 28.9741 24.4897C32.8591 21.51 38.0033 20.8148 42.932 24.5559C43.2799 24.8373 43.7686 24.9035 44.1165 24.7628C44.1084 24.771 47.3058 23.935 50.0146 27.3368Z" fill="#56ACE0"/>
<path d="M17.2361 35.3156C13.6907 35.3156 10.7749 38.229 10.7749 41.7714C10.7749 45.3137 13.6908 48.2272 17.2361 48.2272C20.7814 48.2272 23.6973 45.3137 23.6973 41.7714C23.6973 38.229 20.7732 35.3156 17.2361 35.3156Z" fill="white"/>
<path d="M55.2251 41.6969C55.2251 45.2393 52.3092 48.1527 48.7639 48.1527C45.2186 48.1527 42.3027 45.2392 42.3027 41.6969C42.3027 38.1544 45.2186 35.241 48.7639 35.241C52.3094 35.2493 55.2251 38.1627 55.2251 41.6969Z" fill="#FFC10D"/>
<path d="M27.5827 22.0645H10.6344C9.79783 22.0645 8.89484 22.8259 9.38356 24.0757L12.1586 29.4888C12.4403 30.0433 12.9952 30.3247 13.6166 30.2502C13.6166 30.2502 28.7591 27.8251 28.6183 44.4033C28.6183 45.1647 29.2395 45.7939 30.01 45.7939H35.9825C36.7445 45.7939 37.3742 45.1732 37.3742 44.4033C37.4404 27.8912 52.3013 30.2502 52.3759 30.2502C53.6267 30.4571 54.2479 29.141 53.8338 28.2389C51.1914 22.6852 47.0992 21.8576 44.9454 21.8576L43.628 13.1835C43.5618 12.4883 42.9323 12 42.2363 12H39.1796C38.4176 12 37.7879 12.6207 37.7879 13.3905C37.7879 14.1519 38.4091 14.7811 39.1796 14.7811H41.0517L41.9546 20.6079C37.026 18.2489 32.031 18.9441 27.5827 22.0645ZM42.9323 24.5641C43.2801 24.8455 43.7689 24.9117 44.1168 24.7709C44.1168 24.7709 47.3143 23.935 50.023 27.3367C45.9972 27.4774 35.3029 29.0748 34.6734 42.9466H31.4096C31.128 34.7609 26.4064 27.196 14.2542 27.4029L12.9371 24.8371H28.0796C28.4275 24.8371 28.7754 24.6964 28.9824 24.4895C32.8594 21.51 38.0034 20.8147 42.9323 24.5641Z" fill="#194F82"/>
<path d="M17.2363 32.5428C12.1666 32.5428 8 36.7061 8 41.7714C8 46.8367 12.1666 51 17.2363 51C22.3059 51 26.4726 46.8368 26.4726 41.7714C26.4062 36.6316 22.3058 32.5428 17.2363 32.5428ZM17.2363 48.1528C13.6908 48.1528 10.7751 45.2393 10.7751 41.697C10.7751 38.1545 13.691 35.3157 17.2363 35.3157C20.7816 35.3157 23.6975 38.2291 23.6975 41.7715C23.6975 45.3055 20.7734 48.1528 17.2363 48.1528Z" fill="#194F82"/>
<path d="M48.7636 32.5428C43.694 32.5428 39.5273 36.706 39.5273 41.7714C39.5273 46.8368 43.694 51 48.7636 51C53.8332 51 57.9999 46.8368 57.9999 41.7714C57.9999 36.6316 53.8332 32.5428 48.7636 32.5428ZM48.7636 48.1528C45.2182 48.1528 42.3024 45.2393 42.3024 41.697C42.3024 38.1545 45.2183 35.2412 48.7636 35.2412C52.3089 35.2412 55.2248 38.1546 55.2248 41.697C55.2248 45.2393 52.3091 48.1528 48.7636 48.1528Z" fill="#194F82"/>
</svg>
