<svg width="24" height="24" fill="none" xmlns="http://www.w3.org/2000/svg"><path d="M14.884 7.632l.117.236.26.038 5.95.864s0 0 0 0c.141.022.231.15.211.28h0v.006a.248.248 0 01-.073.142s0 0 0 0l-4.305 4.197-.188.184.044.259 1.017 5.927h0a.249.249 0 01-.204.288h0c-.055.01-.11 0-.155-.024l-.003-.001-5.322-2.799-.233-.122-.233.122-5.322 2.799h-.001a.249.249 0 01-.361-.262h0L7.1 13.837l.044-.26-.188-.183-4.305-4.197h0a.251.251 0 01-.006-.355.249.249 0 01.142-.072h.001l5.951-.865.26-.038.117-.236 2.659-5.39V2.24a.253.253 0 01.336-.114h.001a.246.246 0 01.112.112h0l2.66 5.393" stroke="#FABA3E"/></svg>